# xmcd
#
# Track frame offsets: 
#        150
#        25612
#        43062
#        74599
#        89515
#        116274
#        135386
#        165367
#        186639
#
# Disc length: 3045 seconds
#
# Revision: 0
# Processed by: cddbd v1.5.2PL0 Copyright (c) Steve Scherf et al.
# Submitted via: ExactAudioCopy v0.99pb3
#
DISCID=750be309
DTITLE=Rich Cohen and The Blues Prescription - Sour Mash
DYEAR=2006
DGENRE=Blues
TTITLE0=Can't Do Nothing About It
TTITLE1=Sour Mash
TTITLE2=2:19
TTITLE3=Bounce and Burn
TTITLE4=Floating Bridge
TTITLE5=Shame On You
TTITLE6=Rx Blues
TTITLE7=Who's That Knockin'
TTITLE8=Shake Your Hips
EXTD=
EXTT0=
EXTT1=
EXTT2=
EXTT3=
EXTT4=
EXTT5=
EXTT6=
EXTT7=
EXTT8=
PLAYORDER=
